#!OML:ASF E:/inclinewalkrobotboard/Project1/Captureday1/Session1/subject1.ASF
:FULLY-SPECIFIED
:DEGREES
226
root 0 0 0 0.46075871010800995 -3.163652222507507 1.2597313927599798
lowerback 11.504792027067724 0.6314431991997376 -0.5349613144731683
upperback -2.7787609747680615 0.7971154351925439 0.016863659958257227
thorax -9.45049770468444 0.3558262240205978 0.20012058884751982
lowerneck -9.79952828046172 0.26224736351940914 2.3756641876719318
upperneck 18.55273041557311 1.1318836574042392 -5.504855729499671
head 7.4472536233535145 0.27319572577567297 -2.0901349501532223
rclavicle 2.1268583527820991E-16 -7.380618449234889E-16
rhumerus 2.58177095334781 3.4383107846389755 -59.56534893030599
rradius 56.19624341764846
rwrist 17.53981614238147
rhand -28.40040853524934 -27.54487501789472
rfingers 7.125019999999986
rthumb -1.7679405332015916 -57.78375430404054
lclavicle -8.352828937412865E-16 -1.749290076411502E-16
lhumerus 3.0734455590900005 -9.599680410163657 59.03658180673504
lradius 55.77369741540261
lwrist -11.272046485854812
lhand -38.861163056907316 -35.99024236023485
lfingers 7.125019999999983
lthumb -11.802251919551479 -6.297895837621006
rfemur -25.351022583629124 1.7758671818572014 19.993247192864228
rtibia 47.794172712943286
rfoot -7.30051014061641 -9.866791909296001
rtoes -1.4406918525864754
lfemur -14.881137167681384 -0.307908573880889 -17.17636803428549
ltibia 42.558787402535756
lfoot -6.027859270397213 -4.768551015432598
ltoes -6.2407274784876945
227
root 0 0 0 0.4609326823097115 -3.1617272915296333 1.2629380378765387
lowerback 11.50492807451631 0.6302218556894157 -0.5382124741189799
upperback -2.7790307690978757 0.7950651334855892 0.0166729399303831
thorax -9.45092031606033 0.35490619035585336 0.20211704028463562
lowerneck -9.798692397990028 0.26277932626640377 2.3759185363640674
upperneck 18.552681548681118 1.1327306044075938 -5.5055389190221735
head 7.4471244572865505 0.27358526624795454 -2.09029148778203
rclavicle 2.1273118362885906E-16 -7.380648152284535E-16
rhumerus 2.5819088125121397 3.438372723110506 -59.565234442722215
rradius 56.196364578121134
rwrist 17.539913899009093
rhand -28.400449401677086 -27.545107088349926
rfingers 7.125019999999986
rthumb -1.7679900107380737 -57.784015095694826
lclavicle -8.353048964360768E-16 -1.748315065678472E-16
lhumerus 3.0752342161532376 -9.600182187695781 59.035334762554
lradius 55.77509304993997
lwrist -11.272885900852321
lhand -38.861760651772016 -35.99320964340737
lfingers 7.125019999999983
lthumb -11.802823129144015 -6.300998096829893
rfemur -25.387597748551286 1.7666712834530158 19.975239715239184
rtibia 47.830181544133
rfoot -7.28805688359462 -9.872873003639178
rtoes -1.4459657799241965
lfemur -14.889899165120251 -0.3015407344871165 -17.169435672273696
ltibia 42.60352184334858
lfoot -6.012600711692766 -4.782943996907647
ltoes -6.2475258268474185
228
root 0 0 0 0.46110808203161824 -3.1600587753731384 1.2657043323356805
lowerback 11.505034026511083 0.6291691457669313 -0.5410247182784552
upperback -2.7792755713765547 0.7932992636275936 0.0165053960564967
thorax -9.451290891210936 0.3541137103864881 0.20383339392863142
lowerneck -9.797956431037779 0.2632557657243715 2.3761495810193805
upperneck 18.55258034051601 1.1334801388123643 -5.506135424616654
head 7.44698727692744 0.2739308672338794 -2.090426434260413
rclavicle 2.127781030259187E-16 -7.380580071750137E-16
rhumerus 2.5821173366725354 3.438503163786317 -59.56509982319867
rradius 56.196550855004745
rwrist 17.540017360248
rhand -28.400512390800458 -27.545428652527125
rfingers 7.125019999999986
rthumb -1.7680533264671903 -57.78436207917229
lclavicle -8.353228774744574E-16 -1.7470144143881334E-16
lhumerus 3.0773565264554144 -9.600791004643359 59.03386342505338
lradius 55.7767597408032
lwrist -11.273865093803765
lhand -38.862470763662 -35.996695054695905
lfingers 7.125019999999983
lthumb -11.803501057609692 -6.304635829710392
rfemur -25.41829660597042 1.759195007475623 19.960205037046144
rtibia 47.85804648428606
rfoot -7.278986046051708 -9.878445964576803
rtoes -1.451458446824145
lfemur -14.896691045790302 -0.29722308695792754 -17.164569862299416
ltibia 42.63340938365307
lfoot -6.00296943130495 -4.792159443870732
ltoes -6.2520304508905555
229
root 0 0 0 0.46125509426740674 -3.158750040469565 1.2678564704348012
lowerback 11.505106405195743 0.6283477694926412 -0.5432228171734442
upperback -2.779467173377152 0.7919228884135079 0.016375895361444126
thorax -9.45157400875223 0.35349578480426724 0.20517094421262583
lowerneck -9.797388327121757 0.26363186788178483 2.3763276869383594
upperneck 18.552463883012013 1.1340667142221252 -5.50659110109022
head 7.446866635199573 0.2742020665825582 -2.090526835402716
rclavicle 2.1282121277832191E-16 -7.380364383575032E-16
rhumerus 2.582339269817929 3.4386572642692386 -59.56497344330168
rradius 56.19675002241676
rwrist 17.540107951744684
rhand -28.40057983505946 -27.54575679212346
rfingers 7.125019999999986
rthumb -1.76811533907237 -57.784709879163216
lclavicle -8.353286542383027E-16 -1.7456361777867183E-16
lhumerus 3.079322804917581 -9.601363639626484 59.032505944244846
lradius 55.77831028222178
lwrist -11.274762152522692
lhand -38.86312971771335 -35.9999011160377
lfingers 7.125019999999983
lthumb -11.80412889110011 -6.307977522729757
rfemur -25.440963143200108 1.7538783471125579 19.949168545997033
rtibia 47.87665456866985
rfoot -7.273426776276777 -9.882948108333059
rtoes -1.4563990200306216
lfemur -14.89944162857864 -0.2953952635053576 -17.162775549497347
ltibia 42.645444409393136
lfoot -5.9998348108022155 -4.79568456333933
ltoes -6.253951408495339
230
root 0 0 0 0.4613597169345067 -3.157785306345005 1.269409732306568
lowerback 11.50514533049455 0.6277472990456114 -0.544827663624983
upperback -2.779594580023705 0.7909185069740738 0.0162882874338246
thorax -9.451757991121614 0.3530446677871149 0.2061496295355102
lowerneck -9.797006353085777 0.26389795271936656 2.3764388759398725
upperneck 18.552346507722714 1.1344779709918744 -5.506890345082143
head 7.446771838605784 0.2743933940738261 -2.090587356502227
rclavicle 2.1285637150386888E-16 -7.380062260733471E-16
rhumerus 2.582504038183263 3.438779807108599 -59.56488850580928
rradius 56.19689810234763
rwrist 17.540164422753328
rhand -28.400629490380048 -27.545991592400053
rfingers 7.125019999999986
rthumb -1.7681577253977823 -57.78495696153937
lclavicle -8.353240304050988E-16 -1.744430291825009E-16
lhumerus 3.080840458340429 -9.601811936350648 59.031461922538696
lradius 55.77951224555517
lwrist -11.27544724026273
lhand -38.86363925435457 -36.002358666453866
lfingers 7.125019999999983
lthumb -11.804613451312704 -6.310536279986017
rfemur -25.455424020702893 1.7506677078862685 19.942183694337388
rtibia 47.88679209364581
rfoot -7.270869337505747 -9.886157173769158
rtoes -1.460325332762875
lfemur -14.897769072142133 -0.2957853135133043 -17.16398176263146
ltibia 42.64171708721221
lfoot -6.002242473815737 -4.794472281137809
ltoes -6.253669699844924
231
root 0 0 0 0.46141986562990533 -3.1570984221786853 1.2704716473898705
lowerback 11.505156779622009 0.6273248841029583 -0.5459490566249164
upperback -2.779661482398733 0.7902139874093228 0.016238222135304348
thorax -9.451852076401781 0.3527281205982593 0.2068408211004551
lowerneck -9.796791124909186 0.2640659515044539 2.3764856070880525
upperneck 18.552238549296103 1.1347349055659093 -5.507049503509726
head 7.446704924409549 0.2745145163105298 -2.090611421223393
rclavicle 2.128810295145095E-16 -7.379756588550118E-16
rhumerus 2.58256774648855 3.4388342073963862 -59.56486338571008
rradius 56.19695501619789
rwrist 17.54017663760625
rhand -28.400647399656485 -27.546072887982756
rfingers 7.125019999999986
rthumb -1.7681699016947166 -57.78504371980163
lclavicle -8.353131624095823E-16 -1.7435441584608385E-16
lhumerus 3.0817937764634884 -9.602098843118513 59.03080903365907
lradius 55.78027203159876
lwrist -11.27587144754752
lhand -38.86396016859112 -36.00388795831252
lfingers 7.125019999999983
lthumb -11.80491794895851 -6.312126302784542
rfemur -25.46287102938274 1.749185105634309 19.938639033594388
rtibia 47.89040123387066
rfoot -7.270453822277568 -9.888116574157092
rtoes -1.4630571093686031
lfemur -14.892564776642967 -0.2976781257133233 -17.167379979215866
ltibia 42.62743556259295
lfoot -6.008196009048894 -4.790287811097367
ltoes -6.251964250585308
232
root 0 0 0 0.4614422466742809 -3.156611659237526 1.2711784607953238
lowerback 11.505149811092867 0.6270299224476861 -0.5467210847526104
upperback -2.7796811384743423 0.7897239319289546 0.01621663480774571
thorax -9.451878284808977 0.3525079239727305 0.20732713233266453
lowerneck -9.796701753117322 0.26415901791548 2.376481947320247
upperneck 18.55214699681984 1.1348753827064835 -5.507103636764624
head 7.446662979750089 0.2745826140322909 -2.0906082012803253
rclavicle 2.1289475401828915E-16 -7.379514813977249E-16
rhumerus 2.582522172128254 3.438810248774967 -59.56489784905166
rradius 56.19691304341126
rwrist 17.540147171422742
rhand -28.400630915893874 -27.545992703669757
rfingers 7.125019999999986
rthumb -1.768151193487367 -57.784963786506054
lclavicle -8.353009155373762E-16 -1.7430261924579724E-16
lhumerus 3.082211187125832 -9.602229653375018 59.03052579931983
lradius 55.78060977845837
lwrist -11.27605115928116
lhand -38.86410156333436 -36.00454342605753
lfingers 7.125019999999983
lthumb -11.805051552192268 -6.312805568909397
rfemur -25.465248648839243 1.7488896362054602 19.937561601363686
rtibia 47.889899751959085
rfoot -7.271226911300233 -9.889050141040013
rtoes -1.4646460917216442
lfemur -14.885441312539951 -0.30020530589681316 -17.171812027267244
ltibia 42.608851417215256
lfoot -6.0154010685458115 -4.785073214951515
ltoes -6.249716182529227
